<?xml version="1.0"?>
<svg xmlns="http://www.w3.org/2000/svg" xmlns:xlink="http://www.w3.org/1999/xlink" version="1.1" id="Capa_1" x="0px" y="0px" viewBox="0 0 387.546 387.546" style="enable-background:new 0 0 387.546 387.546;" xml:space="preserve" width="512px" height="512px" class=""><g transform="matrix(0.221452 0 0 0.221452 150.862 150.862)"><g>
	<g>
		<g>
			<path d="M181.986,175.946h-16.4v-67.6c0-3.6-2.8-6.4-6.4-6.4v-76c0-9.6-4-17.6-10.4-22c-6.8-4.4-15.6-5.2-24.4-2l-18.8,7.2     c-16.8,6.4-30,25.6-30,43.6v49.2c-3.6,0-6.4,2.8-6.4,6.4v67.2h-16.4c-3.6,0-6.4,2.8-6.4,6.4v165.6c-0.8,22,16.8,40,38.8,40h64     c21.6,0,39.2-17.6,39.2-39.2v-166C188.386,178.746,185.586,175.946,181.986,175.946z M88.386,52.746c0-12.4,10-26.8,21.6-31.2     l18.8-7.2c4.8-2,9.2-1.6,12.4,0.4c3.2,2,4.8,6,4.8,11.2v76h-57.6V52.746z M81.586,114.746h70.4v60.8h-70.4V114.746z      M175.186,347.946c0,14.4-11.6,26.4-26.4,26.4h-64c-14.4,0-26.4-11.6-26.4-26.4v-159.2h0.4h10v131.2c0,3.6,2.8,6.4,6.4,6.4     c3.6,0,6.4-2.8,6.4-6.4v-131.2h93.6V347.946z" data-original="#000000" class="active-path" data-old_color="#000000" fill="#1600FF"/>
			<path d="M301.986,175.946h-64c-21.6,0-39.2,17.6-39.2,39.2v165.6c0,3.6,2.8,6.8,6.4,6.8h129.6c3.6,0,6.4-2.8,6.4-6.4v-166     C341.186,193.546,323.586,175.946,301.986,175.946z M328.386,374.346h-116.4v-146h116.4V374.346z M211.986,215.146     c0-14.4,11.6-26.4,26-26.4h64c14.4,0,26.4,11.6,26.4,26.4H211.986z" data-original="#000000" class="active-path" data-old_color="#000000" fill="#1600FF"/>
		</g>
	</g>
</g></g> </svg>
