<?xml version="1.0"?>
<svg xmlns="http://www.w3.org/2000/svg" xmlns:xlink="http://www.w3.org/1999/xlink" version="1.1" id="Capa_1" x="0px" y="0px" viewBox="0 0 512 512" style="enable-background:new 0 0 512 512;" xml:space="preserve" width="512px" height="512px" class=""><g transform="matrix(0.239993 0 0 0.239993 194.562 194.562)"><g>
	<g>
		<path d="M499.688,230.345c-12.424-35.788-36.454-77.239-67.664-116.72c-31.21-39.479-65.997-72.427-97.951-92.775    C299.905-0.905,272.165-5.827,255.954,6.986l-28.499,22.53c-16.21,12.815-17.821,40.944-4.539,79.21    c11.978,34.502,34.744,74.265,64.328,112.452c-8.17,0.179-16.244,0.537-24.182,1.074c-42.767-52.845-88.497-94.461-97.392-102.408    c-3.893-11.794-9.333-23.72-16.229-35.486c-2.095-3.573-6.692-4.772-10.264-2.678c-3.574,2.095-4.773,6.69-2.678,10.264    c5.89,10.048,10.631,20.186,14.128,30.195l-9.187,9.372l-47.475-46.54c-2.958-2.9-7.708-2.853-10.607,0.106    c-2.899,2.958-2.852,7.707,0.105,10.607l47.476,46.54l-16.226,16.552l-47.476-46.54c-2.958-2.9-7.708-2.853-10.607,0.106    c-2.899,2.958-2.852,7.707,0.105,10.607l47.476,46.54l-9.187,9.372c-29.491-9.639-54.246-27.897-70.1-41.839    c-3.998-3.516-6.308-8.376-6.504-13.687c-0.196-5.298,1.74-10.3,5.454-14.088l55.739-56.863c3.712-3.788,8.655-5.827,13.976-5.732    c5.314,0.091,10.219,2.303,13.815,6.231c3.317,3.624,6.562,7.382,9.64,11.168c2.613,3.215,7.338,3.703,10.551,1.088    c3.214-2.613,3.702-7.337,1.088-10.551c-3.262-4.014-6.7-7.996-10.214-11.835c-6.404-6.997-15.149-10.939-24.624-11.101    c-9.457-0.152-18.32,3.471-24.945,10.23l-55.74,56.863c-6.626,6.759-10.082,15.689-9.731,25.145    c0.351,9.469,4.467,18.134,11.59,24.397c17.396,15.299,44.927,35.483,78.025,45.674c5.409,5.82,25.973,27.581,54.744,53.61    c-26.828,12.491-41.365,28.298-41.365,45.455c0,4.589,1.044,9.079,3.079,13.438c0.033,0.089,0.058,0.18,0.094,0.269l19.087,46.734    c6.997,17.133,21.106,30.182,38.707,35.799c23.274,7.427,65.046,16.281,131.878,16.281c47.894,0,83.005-4.505,107.968-9.952    l60.998,59.796c9.958,9.762,10.1,24.075,0.339,34.034c-4.857,4.954-10.759,7.57-17.076,7.57c-0.035,0-0.07,0-0.106,0    c-6.139-0.029-12.123-2.596-16.851-7.231l-77.852-76.316c-2.958-2.9-7.708-2.851-10.606,0.106    c-2.9,2.958-2.853,7.707,0.105,10.607l77.852,76.316c7.53,7.382,17.219,11.474,27.283,11.52c0.058,0,0.115,0,0.173,0    c10.293,0,20.158-4.283,27.792-12.071c15.592-15.905,15.356-39.656-0.55-55.248l-54.424-53.352    c4.315-1.23,8.198-2.463,11.654-3.662c14.757-5.121,26.598-16.329,32.485-30.751l15.829-38.764l10.875-8.597    c0.005-0.004,0.01-0.009,0.015-0.013C511.36,296.722,512.967,268.598,499.688,230.345z M107.556,187.507l51.962-53.007    c13.283,12.11,49.651,46.323,85.413,89.307c-38.089,4.736-80.89,17.142-81.732,17.447    C136.615,217.571,116.368,196.797,107.556,187.507z M121.42,293.029c0-13.387,18.411-27.785,49.252-38.514    c32.712-11.382,82.119-17.447,128.927-17.964c6.785,8.136,13.704,15.948,20.696,23.38c-6.978-0.295-14.002-0.455-21.028-0.455    c-38.778,0-76.598,4.518-106.492,12.719c-6.135,1.683-11.93,3.517-17.224,5.453c-6.541,2.39-10.766,8.429-10.766,15.383    c0,6.954,4.227,12.992,10.765,15.382c5.293,1.935,11.089,3.77,17.225,5.454c4.681,1.284,15.787,3.778,16.316,3.778    c3.451,0,6.557-2.396,7.322-5.906c0.882-4.048-1.684-8.044-5.732-8.926c-4.822-1.051-9.511-2.199-13.937-3.413    c-5.74-1.574-11.137-3.282-16.044-5.076c-0.25-0.091-0.914-0.334-0.914-1.292s0.664-1.201,0.914-1.292    c4.908-1.793,10.305-3.501,16.044-5.076c28.637-7.857,65.048-12.185,102.523-12.185c12.36,0,24.709,0.491,36.77,1.426    c11.68,11.29,23.431,21.413,34.975,30.113c-22.185,3.654-46.643,5.567-71.745,5.567c-18.609,0-36.946-1.056-54.502-3.14    c-4.122-0.493-7.845,2.451-8.333,6.565c-0.488,4.114,2.451,7.844,6.565,8.333c18.139,2.153,37.072,3.244,56.269,3.244    c31.599,0,62.282-2.951,89.006-8.533c0.087,0.055,0.174,0.114,0.261,0.169c11.223,7.147,21.744,12.461,31.399,15.943    c-32.862,10.176-75.39,15.852-120.665,15.852C194.46,350.015,121.42,319.983,121.42,293.029z M454.558,351.245    c-4.26,10.432-12.831,18.541-23.516,22.249c-22.421,7.78-63.484,17.054-131.779,17.054c-64.903,0-105.059-8.468-127.318-15.571    c-13.358-4.264-24.067-14.169-29.38-27.179l-6.242-15.283c8.227,4.814,18.057,9.245,29.416,13.198    c35.78,12.449,83.2,19.305,133.526,19.305c57.453,0,114.64-10.601,151.077-26.325c3.844-0.502,7.38-1.534,10.597-3.079    L454.558,351.245z M457.348,320.317c-10.499,8.3-33.213,2.787-60.757-14.751c-30.575-19.47-64.044-51.229-94.242-89.425    C237.352,133.922,215.615,58,236.758,41.285l5.898-4.663c-0.857,13.493,2.045,30.236,8.758,49.574    c12.424,35.789,36.454,77.239,67.664,116.719c31.21,39.479,65.997,72.427,97.951,92.775    c17.273,10.999,32.895,17.679,46.224,19.958L457.348,320.317z M485.847,297.787c-10.498,8.302-33.214,2.787-60.757-14.751    c-30.576-19.47-64.045-51.228-94.242-89.425c-30.196-38.196-53.373-78.091-65.261-112.335    c-10.708-30.847-10.832-54.219-0.33-62.521c3.219-2.545,7.585-3.792,12.887-3.792c11.993,0,28.772,6.381,47.87,18.542    c30.575,19.471,64.044,51.229,94.241,89.425C485.253,205.149,506.99,281.071,485.847,297.787z" data-original="#000000" class="active-path" data-old_color="#00EDFF" fill="#00FFE2"/>
	</g>
</g></g> </svg>
