<?xml version="1.0" encoding="iso-8859-1"?>
<!-- Generator: Adobe Illustrator 19.0.0, SVG Export Plug-In . SVG Version: 6.00 Build 0)  -->
<svg version="1.1" id="Layer_1" xmlns="http://www.w3.org/2000/svg" xmlns:xlink="http://www.w3.org/1999/xlink" x="0px" y="0px"
	 viewBox="0 0 512 512" style="enable-background:new 0 0 512 512;" xml:space="preserve">
<path style="fill:#50412E;" d="M165.357,171.757c-0.803-1.417-20.147-34.707-61.732-34.707s-60.927,33.29-61.73,34.708l-3.906,6.893
	l31.146,88.984l34.491,19.055l34.494-19.055l31.145-88.986L165.357,171.757z"/>
<path d="M103.626,286.691l34.494-19.055l31.145-88.986l-3.906-6.893c-0.803-1.417-20.147-34.707-61.732-34.707"/>
<rect x="68.713" y="370.036" style="fill:#00A1A7;" width="69.818" height="141.964"/>
<rect x="103.633" y="370.036" style="fill:#006C70;" width="34.909" height="141.964"/>
<rect x="68.713" y="267.636" style="fill:#FFE98F;" width="69.818" height="104.727"/>
<rect x="103.633" y="267.636" style="fill:#FFC170;" width="34.909" height="104.727"/>
<rect x="227.316" y="288.966" style="fill:#A2001D;" width="69.818" height="223.034"/>
<rect x="262.225" y="288.966" style="fill:#6C0014;" width="34.909" height="223.034"/>
<rect x="227.316" y="168.727" style="fill:#FFE98F;" width="69.818" height="122.182"/>
<rect x="262.225" y="168.727" style="fill:#FFC170;" width="34.909" height="122.182"/>
<path style="fill:#50412E;" d="M377.466,54.06C375.937,51.853,339.129,0,262.175,0c-76.94,0-113.829,51.835-115.363,54.043
	l-6.776,9.756l87.408,122.383h69.694L384.42,64.097L377.466,54.06z"/>
<path d="M262.229,186.182h34.909L384.42,64.097l-6.954-10.036C375.937,51.853,339.129,0,262.175,0"/>
<polygon style="fill:#50412E;" points="376.068,136.18 386.738,203.636 421.552,221.091 456.461,203.636 474.011,77.414 "/>
<polygon points="421.552,108.891 421.552,203.636 456.461,203.636 474.011,77.414 "/>
<rect x="386.641" y="323.875" style="fill:#00A1A7;" width="69.818" height="188.125"/>
<rect x="421.551" y="323.875" style="fill:#006C70;" width="34.909" height="188.125"/>
<rect x="386.641" y="203.636" style="fill:#FFE98F;" width="69.818" height="122.182"/>
<rect x="421.551" y="203.636" style="fill:#FFC170;" width="34.909" height="122.182"/>
<g>
</g>
<g>
</g>
<g>
</g>
<g>
</g>
<g>
</g>
<g>
</g>
<g>
</g>
<g>
</g>
<g>
</g>
<g>
</g>
<g>
</g>
<g>
</g>
<g>
</g>
<g>
</g>
<g>
</g>
</svg>
