<?xml version="1.0" encoding="iso-8859-1"?>
<!-- Generator: Adobe Illustrator 19.0.0, SVG Export Plug-In . SVG Version: 6.00 Build 0)  -->
<svg version="1.1" id="Layer_1" xmlns="http://www.w3.org/2000/svg" xmlns:xlink="http://www.w3.org/1999/xlink" x="0px" y="0px"
	 viewBox="0 0 360.61 360.61" style="enable-background:new 0 0 360.61 360.61;" xml:space="preserve">
<g>
	<rect x="198.652" y="67.76" style="fill:#A4A9AD;" width="19.406" height="25.092"/>
	<path style="fill:#E5AB46;" d="M247.734,96.772c0-5.175-4.495-9.409-11.8-9.409h-58.783c-3.679,0-8.175,4.234-8.175,9.409v24.894
		c0,5.176,4.496,9.408,9.988,9.408h58.781c5.493,0,9.988-4.232,9.988-9.408V96.772H247.734z"/>
	<path style="fill:#FF5959;" d="M255.791,123.429v-4.631c0-4.647-3.767-8.414-8.414-8.414h-78.043c-4.647,0-8.415,3.767-8.415,8.414
		v4.631c0,18.817-62.884,72.573-62.884,145.145c0,38.442,19.667,72.287,49.486,92.036h121.667
		c29.818-19.749,49.486-53.594,49.486-92.036C318.675,196.002,255.791,142.246,255.791,123.429z"/>
	<g>
		<path style="fill:#E5AB46;" d="M226.291,40.122c0-2.588-2.117-4.704-4.704-4.704h-26.463c-2.586,0-4.704,2.116-4.704,4.704v26.462
			c0,2.588,2.118,4.705,4.704,4.705h26.463c2.587,0,4.704-2.117,4.704-4.705V40.122z"/>
		<path style="fill:#333E48;" d="M190.42,64.379c6.089,0,11.025-4.936,11.025-11.025c0-6.09-4.937-11.026-11.025-11.026V64.379z"/>
		<path style="fill:#A4A9AD;" d="M190.42,56.734c1.867,0,3.381-1.514,3.381-3.381c0-1.868-1.514-3.382-3.381-3.382V56.734z"/>
	</g>
	<g>
		<circle style="fill:#F5CFB2;" cx="145.238" cy="19.148" r="7.84"/>
		<circle style="fill:#F5CFB2;" cx="56.05" cy="29.968" r="14.113"/>
		<path style="fill:#F5CFB2;" d="M180.129,47.668c-18.622,0-33.127-12.839-40.604-17.7v0.001c-2.155-1.597-4.551-2.887-7.123-3.808
			c-3.849-9.013-12.344-15.564-22.477-16.651C107.478,3.914,101.899,0,95.4,0c-8.756,0-15.855,7.098-15.855,15.854
			c0,3.247,0.979,6.263,2.654,8.777c-1.871,3.729-2.93,7.935-2.93,12.39c0,6.036,1.938,11.615,5.218,16.164
			c-8.021,4.847-13.384,13.648-13.384,23.702c0,15.284,12.39,27.674,27.673,27.674c14.335,0,26.124-10.899,27.533-24.862
			c4.323-0.504,8.341-2.004,11.82-4.266v0.001c0.023-0.015,0.048-0.032,0.072-0.047c0.142-0.093,0.285-0.183,0.425-0.278
			c7.667-5.029,23.278-16.071,41.501-16.071c3.14,0,5.686-2.545,5.686-5.685C185.814,50.213,183.269,47.668,180.129,47.668z"/>
	</g>
	<circle style="fill:#FFFFFF;" cx="260.4" cy="207.295" r="25.485"/>
	<circle style="fill:#FFFFFF;" cx="285.885" cy="252.411" r="14.116"/>
</g>
<g>
</g>
<g>
</g>
<g>
</g>
<g>
</g>
<g>
</g>
<g>
</g>
<g>
</g>
<g>
</g>
<g>
</g>
<g>
</g>
<g>
</g>
<g>
</g>
<g>
</g>
<g>
</g>
<g>
</g>
</svg>
