<?xml version="1.0"?>
<svg xmlns="http://www.w3.org/2000/svg" xmlns:xlink="http://www.w3.org/1999/xlink" version="1.1" id="Capa_1" x="0px" y="0px" viewBox="0 0 512 512" style="enable-background:new 0 0 512 512;" xml:space="preserve" width="512px" height="512px" class=""><g transform="matrix(0.232865 0 0 0.232865 196.387 196.387)"><g>
	<g>
		<path d="M285.235,272.473c-4.143,0-7.5,3.358-7.5,7.5v12.451c0,4.142,3.357,7.5,7.5,7.5s7.5-3.358,7.5-7.5v-12.451    C292.735,275.831,289.378,272.473,285.235,272.473z" data-original="#000000" class="active-path" data-old_color="#DD00FF" fill="#B700FF"/>
	</g>
</g><g>
	<g>
		<path d="M123.921,272.473c-4.143,0-7.5,3.358-7.5,7.5v12.451c0,4.142,3.357,7.5,7.5,7.5s7.5-3.358,7.5-7.5v-12.451    C131.421,275.831,128.064,272.473,123.921,272.473z" data-original="#000000" class="active-path" data-old_color="#DD00FF" fill="#B700FF"/>
	</g>
</g><g>
	<g>
		<path d="M204.578,25.256c-4.142,0-7.5,3.358-7.5,7.5v17.04c0,4.142,3.358,7.5,7.5,7.5c4.142,0,7.5-3.358,7.5-7.5v-17.04    C212.078,28.614,208.721,25.256,204.578,25.256z" data-original="#000000" class="active-path" data-old_color="#DD00FF" fill="#B700FF"/>
	</g>
</g><g>
	<g>
		<path d="M340.524,215.758c-10.724-22.592-33.85-37.19-58.916-37.19H127.55c-25.066,0-48.192,14.598-58.917,37.19    c-9.582,20.185-14.439,41.808-14.439,64.269c0,23.028,5.094,45.145,15.14,65.734c1.816,3.723,6.307,5.267,10.029,3.452    c3.723-1.816,5.268-6.307,3.452-10.029c-9.039-18.524-13.621-38.428-13.621-59.157c0-20.218,4.371-39.677,12.99-57.836    c8.253-17.387,26.061-28.622,45.366-28.622h154.057c19.305,0,37.112,11.235,45.365,28.623c8.62,18.159,12.99,37.618,12.99,57.836    c0,74.651-60.732,135.384-135.384,135.384c-42.046-0.001-81.023-19.118-106.936-52.451c-2.543-3.271-7.255-3.861-10.524-1.318    c-3.271,2.542-3.86,7.254-1.318,10.524c28.776,37.015,72.069,58.244,118.779,58.244c82.922,0,150.384-67.462,150.384-150.384    C354.963,257.567,350.105,235.944,340.524,215.758z" data-original="#000000" class="active-path" data-old_color="#DD00FF" fill="#B700FF"/>
	</g>
</g><g>
	<g>
		<path d="M235.484,284.576c-4.043-4.129-9.934-4.625-14.014-4.638c-0.008,0-0.016,0-0.024,0h-33.758    c-4.08,0.013-9.972,0.509-14.014,4.638c-1.753,1.791-3.823,4.999-3.731,10.113c0.653,36.185,13.277,56.938,34.637,56.938    c21.357,0,33.981-20.753,34.635-56.938C239.307,289.575,237.236,286.367,235.484,284.576z M204.578,336.627    c-6.477,0-10.828-4.273-13.754-10.258c3.862-2.141,8.714-3.359,13.754-3.359s9.892,1.218,13.753,3.359    C215.405,332.354,211.054,336.627,204.578,336.627z M222.675,311.785c-5.439-2.443-11.65-3.775-18.098-3.775    s-12.658,1.331-18.097,3.775c-1.062-6.182-1.424-12.286-1.527-16.658c0.576-0.096,38.673-0.095,39.249,0.001    C224.1,299.5,223.737,305.603,222.675,311.785z" data-original="#000000" class="active-path" data-old_color="#DD00FF" fill="#B700FF"/>
	</g>
</g><g>
	<g>
		<path d="M484.39,92.909c-2.054-3.598-6.635-4.85-10.23-2.798c-3.599,2.052-4.852,6.633-2.799,10.231    c9.904,17.362,8.436,38.823-3.739,54.673c-16.618,21.631-47.736,25.709-69.364,9.094c-11.302-8.681-22.281-24.771-27.973-40.99    c-6.096-17.369-5.558-32.583,1.477-41.74c8.801-11.455,26.228-12.689,35.824-12.408c15.411,0.454,32.729,5.359,45.192,12.801    c3.556,2.124,8.16,0.963,10.284-2.595c2.123-3.556,0.962-8.161-2.595-10.284c-14.75-8.807-34.354-14.383-52.44-14.916    c-18.764-0.553-34.175,4.313-44.134,13.799c-23.159-14.934-51.184-24.559-83.248-28.343c-12.543-1.48-24.327-1.916-34.771-1.807    V26.617C245.874,11.94,233.933,0,219.256,0H189.9c-14.677,0-26.617,11.94-26.617,26.617v38.364    c-20.54,2.961-36.376,20.672-36.376,42.018c0,6.889,1.66,13.394,4.584,19.154c-31.725,10.924-58.517,29.043-77.886,52.842    c-22.568,27.73-34.497,62.666-34.497,101.032c0,35.008,9.804,69.104,28.353,98.601c14.867,23.642,34.814,43.552,58.279,58.351    c-12.677,6.66-21.347,19.951-21.347,35.237c0,21.937,17.847,39.784,39.784,39.784h160.805c21.937,0,39.783-17.847,39.783-39.784    s-17.847-39.784-39.783-39.784H127.948l0.034-0.068c-27.782-13.998-51.235-35.34-67.824-61.721    c-17.043-27.103-26.051-58.437-26.051-90.616c0-34.877,10.765-66.539,31.131-91.563c18.56-22.805,44.767-39.923,75.967-49.725    c7.501,6.663,17.365,10.722,28.163,10.722h70.42c10.799,0,20.664-4.059,28.165-10.724c31.136,9.782,57.297,26.85,75.853,49.59    c20.438,25.048,31.242,56.757,31.242,91.7c0,52.313-23.524,100.997-64.54,133.571c-3.244,2.576-3.785,7.293-1.209,10.537    c1.48,1.865,6.487,4.553,10.537,1.209c43.939-36.278,70.212-88.402,70.212-145.317c0-38.438-11.972-73.427-34.621-101.184    c-19.362-23.729-46.106-41.791-77.762-52.691c2.924-5.759,4.584-12.264,4.584-19.153c0-21.346-15.836-39.057-36.375-42.018V52.643    c9.93-0.116,21.141,0.285,33.013,1.686c29.878,3.526,55.401,12.087,76.409,25.535c-5.922,12.846-5.701,29.597,0.834,48.221    c6.69,19.066,19.331,37.428,32.988,47.919c11.687,8.977,25.491,13.319,39.199,13.318c19.359-0.002,38.521-8.666,51.199-25.169    C495.382,143.498,497.295,115.533,484.39,92.909z M124.176,447.433h160.805c13.665,0,24.783,11.118,24.783,24.784    c0,13.666-11.118,24.783-24.783,24.783H124.176c-13.666,0-24.784-11.118-24.784-24.784    C99.392,458.55,110.51,447.433,124.176,447.433z M178.283,26.617c0-6.406,5.211-11.617,11.617-11.617h29.356    c6.406,0,11.618,5.211,11.618,11.617v37.921h-52.591V26.617z M267.249,107c0,15.142-12.319,27.461-27.461,27.461h-70.42    c-15.142,0-27.461-12.319-27.461-27.461c0-15.142,12.319-27.461,27.461-27.461h70.42C254.93,79.539,267.249,91.857,267.249,107z" data-original="#000000" class="active-path" data-old_color="#DD00FF" fill="#B700FF"/>
	</g>
</g><g>
	<g>
		<circle cx="449.12" cy="133.98" r="7.5" data-original="#000000" class="active-path" data-old_color="#DD00FF" fill="#B700FF"/>
	</g>
</g><g>
	<g>
		<circle cx="412.08" cy="141.48" r="7.5" data-original="#000000" class="active-path" data-old_color="#DD00FF" fill="#B700FF"/>
	</g>
</g><g>
	<g>
		<circle cx="423.11" cy="105.31" r="7.5" data-original="#000000" class="active-path" data-old_color="#DD00FF" fill="#B700FF"/>
	</g>
</g></g> </svg>
